<?xml version="1.0" standalone="no"?>
<!DOCTYPE svg PUBLIC "-//W3C//DTD SVG 20010904//EN"
 "http://www.w3.org/TR/2001/REC-SVG-20010904/DTD/svg10.dtd">
<svg version="1.0" xmlns="http://www.w3.org/2000/svg"
 width="446.000000pt" height="64.000000pt" viewBox="0 0 446.000000 64.000000"
 preserveAspectRatio="xMidYMid meet">

<g transform="translate(0.000000,64.000000) scale(0.100000,-0.100000)"
fill="#fff" stroke="none">
<path d="M2056 515 c-32 -8 -85 -29 -117 -46 -64 -34 -179 -133 -179 -154 0
-7 28 -39 62 -70 125 -116 288 -164 448 -132 90 17 206 68 282 122 26 19 51
35 55 35 3 0 22 -12 42 -27 l36 -26 -33 35 c-32 34 -32 34 -12 53 26 23 40 17
156 -70 52 -39 77 -54 59 -35 -23 25 -105 92 -164 137 -3 2 13 22 35 46 21 23
55 60 74 81 l35 40 -40 -31 c-22 -17 -53 -45 -70 -63 -45 -47 -61 -53 -90 -34
-25 16 -25 17 -7 38 39 46 44 59 7 24 l-38 -37 -76 39 c-42 21 -107 48 -146
60 -91 28 -238 35 -319 15z m341 -66 c37 -12 92 -32 123 -46 50 -22 53 -26 37
-38 -16 -11 -30 -7 -112 37 -52 27 -122 56 -157 64 l-63 14 53 -5 c29 -3 82
-15 119 -26z m-433 -37 c-21 -16 -53 -44 -71 -62 -26 -26 -30 -37 -22 -52 12
-22 106 -98 122 -98 5 0 8 -3 4 -6 -7 -8 -82 37 -132 80 l-40 34 30 32 c32 34
124 100 139 100 5 0 -9 -13 -30 -28z m351 3 c33 -9 90 -30 128 -47 63 -29 66
-32 51 -49 -23 -26 -141 -85 -208 -104 -112 -33 -237 -7 -319 65 -43 37 -41
43 27 90 87 59 202 75 321 45z m305 -63 l22 -18 -26 -13 c-20 -11 -28 -12 -40
-2 -12 10 -13 16 -3 32 15 23 19 24 47 1z m-50 -61 c0 -13 -141 -89 -207 -110
-83 -28 -102 -26 -33 2 61 25 156 85 185 117 13 15 22 17 36 9 11 -5 19 -13
19 -18z"/>
<path d="M2055 350 c-8 -13 3 -30 20 -30 14 0 27 24 18 34 -10 9 -31 7 -38 -4z"/>
<path d="M90 331 l0 -131 45 0 45 0 0 55 c0 52 1 55 25 55 24 0 25 -3 25 -55
l0 -55 45 0 46 0 -3 128 -3 127 -42 3 -43 3 0 -50 c0 -47 -2 -51 -24 -51 -23
0 -25 5 -28 48 l-3 47 -42 3 -43 3 0 -130z"/>
<path d="M400 330 l0 -130 40 0 40 0 0 130 0 130 -40 0 -40 0 0 -130z"/>
<path d="M1090 440 c-44 -44 -14 -113 63 -141 58 -21 48 -42 -18 -37 -57 3
-65 -2 -65 -43 0 -17 8 -19 88 -19 102 0 122 12 122 73 0 42 -15 60 -76 86
-59 26 -50 46 16 37 43 -6 48 -4 53 15 11 42 0 49 -84 49 -66 0 -82 -3 -99
-20z"/>
<path d="M1350 331 l0 -131 45 0 45 0 0 55 c0 52 1 55 25 55 24 0 25 -3 25
-55 l0 -55 45 0 46 0 -3 128 -3 127 -40 0 -40 0 -3 -47 c-3 -43 -6 -48 -27
-48 -21 0 -24 5 -27 48 l-3 47 -42 3 -43 3 0 -130z"/>
<path d="M3098 454 c-5 -4 -8 -63 -8 -131 l0 -123 44 0 45 0 3 43 c3 41 4 42
45 48 23 3 51 14 63 24 26 24 27 84 1 116 -17 21 -29 24 -103 27 -45 2 -86 0
-90 -4z m110 -63 c19 -12 11 -55 -10 -59 -15 -3 -18 4 -18 32 0 37 5 42 28 27z"/>
<path d="M3427 453 c-3 -5 -19 -57 -36 -118 -18 -60 -34 -116 -36 -122 -3 -9
10 -13 45 -13 47 0 50 2 50 25 0 22 4 25 35 25 29 0 36 -4 41 -25 5 -22 12
-25 50 -25 24 0 44 4 44 8 0 8 -7 33 -51 185 l-20 67 -59 0 c-32 0 -61 -3 -63
-7z m76 -110 c6 -29 4 -33 -14 -33 -17 0 -20 4 -15 23 3 12 6 31 6 42 0 28 16
6 23 -32z"/>
<path d="M4207 453 c-4 -3 -7 -62 -7 -130 l0 -123 90 0 90 0 0 35 c0 35 0 35
-45 35 l-45 0 0 95 0 95 -38 0 c-21 0 -42 -3 -45 -7z"/>
<path d="M540 420 c0 -28 3 -30 35 -30 l35 0 0 -89 c0 -84 1 -89 23 -95 12 -3
33 -3 45 1 21 5 22 11 22 94 l0 89 30 0 c27 0 30 3 30 30 l0 30 -110 0 -110 0
0 -30z"/>
<path d="M820 325 l0 -126 93 3 92 3 3 33 3 32 -50 0 c-44 0 -51 3 -51 20 0
17 7 20 40 20 36 0 40 3 40 25 0 23 -4 25 -40 25 -29 0 -40 4 -40 15 0 11 12
15 50 15 49 0 50 1 50 30 l0 30 -95 0 -95 0 0 -125z"/>
<path d="M3660 420 c0 -28 3 -30 35 -30 l35 0 0 -95 0 -95 40 0 39 0 3 92 3
93 33 3 c28 3 32 7 32 33 l0 29 -110 0 -110 0 0 -30z"/>
<path d="M3940 325 l0 -125 95 0 95 0 0 35 0 35 -50 0 c-43 0 -50 3 -50 20 0
17 7 20 40 20 33 0 40 3 40 20 0 17 -7 20 -40 20 -33 0 -40 3 -40 20 0 17 7
20 50 20 49 0 50 1 50 30 l0 30 -95 0 -95 0 0 -125z"/>
</g>
</svg>
