<?xml version="1.0" standalone="no"?>
<!DOCTYPE svg PUBLIC "-//W3C//DTD SVG 20010904//EN"
 "http://www.w3.org/TR/2001/REC-SVG-20010904/DTD/svg10.dtd">
<svg version="1.0" xmlns="http://www.w3.org/2000/svg"
 width="529.000000pt" height="220.000000pt" viewBox="0 0 529.000000 220.000000"
 preserveAspectRatio="xMidYMid meet">

<g transform="translate(0.000000,220.000000) scale(0.100000,-0.100000)"
fill="#fff" stroke="none">
<path d="M2396 1535 c-32 -8 -85 -29 -117 -46 -64 -34 -179 -133 -179 -154 0
-7 28 -39 62 -70 125 -116 288 -164 448 -132 90 17 206 68 282 122 26 19 51
35 55 35 3 0 22 -12 42 -27 l36 -26 -33 35 c-32 34 -32 34 -12 53 26 23 40 17
156 -70 52 -39 77 -54 59 -35 -23 25 -105 92 -164 137 -3 2 13 22 35 46 21 23
55 60 74 81 l35 40 -40 -31 c-22 -17 -53 -45 -70 -63 -45 -47 -61 -53 -90 -34
-25 16 -25 17 -7 38 39 46 44 59 7 24 l-38 -37 -76 39 c-42 21 -107 48 -146
60 -91 28 -238 35 -319 15z m341 -66 c37 -12 92 -32 123 -46 50 -22 53 -26 37
-38 -16 -11 -30 -7 -112 37 -52 27 -122 56 -157 64 l-63 14 53 -5 c29 -3 82
-15 119 -26z m-433 -37 c-21 -16 -53 -44 -71 -62 -26 -26 -30 -37 -22 -52 12
-22 106 -98 122 -98 5 0 8 -3 4 -6 -7 -8 -82 37 -132 80 l-40 34 30 32 c32 34
124 100 139 100 5 0 -9 -13 -30 -28z m351 3 c33 -9 90 -30 128 -47 63 -29 66
-32 51 -49 -23 -26 -141 -85 -208 -104 -112 -33 -237 -7 -319 65 -43 37 -41
43 27 90 87 59 202 75 321 45z m305 -63 l22 -18 -26 -13 c-20 -11 -28 -12 -40
-2 -12 10 -13 16 -3 32 15 23 19 24 47 1z m-50 -61 c0 -13 -141 -89 -207 -110
-83 -28 -102 -26 -33 2 61 25 156 85 185 117 13 15 22 17 36 9 11 -5 19 -13
19 -18z"/>
<path d="M2395 1370 c-8 -13 3 -30 20 -30 14 0 27 24 18 34 -10 9 -31 7 -38
-4z"/>
<path d="M430 1351 l0 -131 45 0 45 0 0 55 c0 52 1 55 25 55 24 0 25 -3 25
-55 l0 -55 45 0 46 0 -3 128 -3 127 -42 3 -43 3 0 -50 c0 -47 -2 -51 -24 -51
-23 0 -25 5 -28 48 l-3 47 -42 3 -43 3 0 -130z"/>
<path d="M740 1350 l0 -130 40 0 40 0 0 130 0 130 -40 0 -40 0 0 -130z"/>
<path d="M1430 1460 c-44 -44 -14 -113 63 -141 58 -21 48 -42 -18 -37 -57 3
-65 -2 -65 -43 0 -17 8 -19 88 -19 102 0 122 12 122 73 0 42 -15 60 -76 86
-59 26 -50 46 16 37 43 -6 48 -4 53 15 11 42 0 49 -84 49 -66 0 -82 -3 -99
-20z"/>
<path d="M1690 1351 l0 -131 45 0 45 0 0 55 c0 52 1 55 25 55 24 0 25 -3 25
-55 l0 -55 45 0 46 0 -3 128 -3 127 -40 0 -40 0 -3 -47 c-3 -43 -6 -48 -27
-48 -21 0 -24 5 -27 48 l-3 47 -42 3 -43 3 0 -130z"/>
<path d="M3438 1474 c-5 -4 -8 -63 -8 -131 l0 -123 44 0 45 0 3 43 c3 41 4 42
45 48 23 3 51 14 63 24 26 24 27 84 1 116 -17 21 -29 24 -103 27 -45 2 -86 0
-90 -4z m110 -63 c19 -12 11 -55 -10 -59 -15 -3 -18 4 -18 32 0 37 5 42 28 27z"/>
<path d="M3767 1473 c-3 -5 -19 -57 -36 -118 -18 -60 -34 -116 -36 -122 -3 -9
10 -13 45 -13 47 0 50 2 50 25 0 22 4 25 35 25 29 0 36 -4 41 -25 5 -22 12
-25 50 -25 24 0 44 4 44 8 0 8 -7 33 -51 185 l-20 67 -59 0 c-32 0 -61 -3 -63
-7z m76 -110 c6 -29 4 -33 -14 -33 -17 0 -20 4 -15 23 3 12 6 31 6 42 0 28 16
6 23 -32z"/>
<path d="M4547 1473 c-4 -3 -7 -62 -7 -130 l0 -123 90 0 90 0 0 35 c0 35 0 35
-45 35 l-45 0 0 95 0 95 -38 0 c-21 0 -42 -3 -45 -7z"/>
<path d="M880 1440 c0 -28 3 -30 35 -30 l35 0 0 -89 c0 -84 1 -89 23 -95 12
-3 33 -3 45 1 21 5 22 11 22 94 l0 89 30 0 c27 0 30 3 30 30 l0 30 -110 0
-110 0 0 -30z"/>
<path d="M1160 1345 l0 -126 93 3 92 3 3 33 3 32 -50 0 c-44 0 -51 3 -51 20 0
17 7 20 40 20 36 0 40 3 40 25 0 23 -4 25 -40 25 -29 0 -40 4 -40 15 0 11 12
15 50 15 49 0 50 1 50 30 l0 30 -95 0 -95 0 0 -125z"/>
<path d="M4000 1440 c0 -28 3 -30 35 -30 l35 0 0 -95 0 -95 40 0 39 0 3 93 3
92 33 3 c28 3 32 7 32 33 l0 29 -110 0 -110 0 0 -30z"/>
<path d="M4280 1345 l0 -125 95 0 95 0 0 35 0 35 -50 0 c-43 0 -50 3 -50 20 0
17 7 20 40 20 33 0 40 3 40 20 0 17 -7 20 -40 20 -33 0 -40 3 -40 20 0 17 7
20 50 20 49 0 50 1 50 30 l0 30 -95 0 -95 0 0 -125z"/>
<path d="M1340 791 c-12 -24 -13 -41 -1 -41 5 0 14 14 20 30 11 33 -2 41 -19
11z"/>
<path d="M1848 785 c-12 -26 -4 -46 11 -29 5 5 12 19 16 32 9 31 -12 29 -27
-3z"/>
<path d="M1500 711 c0 -98 13 -125 30 -62 5 21 17 45 26 52 14 12 15 7 9 -44
-5 -36 -4 -57 3 -57 11 0 26 96 17 110 -10 16 -43 11 -54 -7 -8 -14 -10 -4
-11 40 0 31 -4 57 -10 57 -6 0 -10 -36 -10 -89z"/>
<path d="M3458 735 c-1 -36 -2 -77 -2 -92 -1 -14 4 -28 10 -30 7 -2 11 30 12
92 1 59 -2 95 -8 95 -5 0 -11 -29 -12 -65z"/>
<path d="M2571 783 c1 -4 1 -20 0 -35 -1 -19 -5 -26 -15 -22 -20 8 -48 -39
-44 -73 2 -23 8 -28 31 -28 15 1 27 -5 27 -12 0 -7 5 -13 10 -13 6 0 11 33 12
75 1 41 2 83 2 92 1 9 -5 18 -12 21 -7 2 -12 0 -11 -5z m-1 -78 c0 -4 -8 -20
-17 -38 -13 -24 -18 -28 -21 -15 -4 20 14 58 28 58 6 0 10 -2 10 -5z"/>
<path d="M3539 750 c-6 -16 -18 -30 -26 -30 -12 0 -13 -3 -3 -15 7 -8 9 -26 5
-43 -8 -40 20 -66 41 -37 23 31 17 51 -6 24 l-21 -24 7 35 c9 47 9 47 49 54
20 4 33 11 31 15 -3 5 -18 6 -32 3 -25 -4 -26 -3 -20 22 9 37 -12 34 -25 -4z"/>
<path d="M1242 728 c-7 -7 -12 -24 -12 -40 0 -15 -8 -32 -17 -38 -17 -9 -17
-11 0 -21 14 -8 18 -21 15 -52 -1 -27 2 -42 11 -45 9 -3 12 9 10 49 -3 50 -1
53 23 60 15 4 30 4 34 0 4 -3 4 0 0 7 -4 6 -18 12 -32 12 -19 0 -24 5 -24 25
0 16 6 25 16 25 9 0 14 5 12 12 -6 17 -22 20 -36 6z"/>
<path d="M1330 673 c0 -82 6 -88 64 -63 41 17 46 23 36 35 -7 8 -21 15 -31 15
-25 0 -24 15 3 34 25 18 16 36 -10 20 -24 -16 -28 -55 -6 -71 10 -7 13 -13 7
-13 -6 0 -18 -3 -27 -6 -13 -5 -16 3 -16 50 0 31 -4 56 -10 56 -6 0 -10 -26
-10 -57z"/>
<path d="M1780 715 c-10 -12 -16 -13 -26 -4 -11 9 -14 4 -15 -30 -1 -22 -2
-46 -3 -53 -1 -6 5 -13 12 -15 7 -3 12 5 12 22 0 16 12 38 30 57 17 16 30 31
30 34 0 10 -29 2 -40 -11z"/>
<path d="M1840 671 c0 -67 19 -85 22 -21 1 22 2 48 2 57 1 9 -5 18 -11 21 -10
3 -13 -13 -13 -57z"/>
<path d="M3788 711 c-11 -18 -13 -18 -25 -3 -11 15 -13 9 -11 -37 2 -33 8 -56
16 -59 7 -2 12 0 11 5 -5 26 4 48 30 73 16 16 26 32 23 35 -11 11 -32 4 -44
-14z"/>
<path d="M1626 698 c-20 -28 -20 -52 0 -72 21 -22 39 -20 64 6 29 32 25 43 -9
19 -16 -12 -34 -21 -40 -21 -22 0 -11 20 20 35 19 10 29 22 27 33 -5 26 -44
27 -62 0z m44 -2 c0 -2 -7 -7 -16 -10 -8 -3 -12 -2 -9 4 6 10 25 14 25 6z"/>
<path d="M1916 698 c-20 -28 -20 -52 0 -72 21 -22 39 -20 63 5 13 14 26 19 38
15 15 -6 13 -10 -15 -23 -17 -8 -32 -19 -32 -24 0 -12 2 -12 55 11 40 17 45
23 35 35 -7 8 -21 15 -31 15 -24 0 -15 24 14 38 21 9 21 10 3 18 -14 5 -23 2
-30 -11 -17 -30 -66 -75 -82 -75 -24 0 -15 19 17 35 19 10 29 22 27 33 -5 26
-44 27 -62 0z m44 -2 c0 -2 -7 -7 -16 -10 -8 -3 -12 -2 -9 4 6 10 25 14 25 6z"/>
<path d="M2253 697 c-31 -34 -35 -45 -23 -67 13 -24 28 -25 52 -3 17 15 18 15
18 -6 0 -12 4 -20 8 -17 5 3 8 28 8 57 -1 45 -4 52 -22 55 -12 2 -29 -6 -41
-19z m21 -36 c-18 -30 -34 -40 -34 -22 0 12 41 63 47 57 3 -2 -3 -18 -13 -35z"/>
<path d="M2405 710 c-4 -6 -15 -8 -26 -5 -16 5 -19 1 -19 -29 0 -64 22 -89 35
-39 3 14 13 36 21 47 13 19 14 19 14 -16 0 -20 5 -40 10 -43 6 -4 10 11 10 38
0 32 -5 47 -16 51 -21 8 -22 8 -29 -4z"/>
<path d="M2745 688 c-30 -36 -30 -40 -5 -63 19 -17 21 -17 40 0 17 16 20 16
20 2 0 -9 5 -19 10 -22 6 -4 10 16 10 53 0 57 -1 60 -25 60 -16 0 -35 -12 -50
-30z m36 -20 c-20 -33 -41 -48 -41 -30 0 14 40 62 52 62 5 0 1 -15 -11 -32z"/>
<path d="M2855 689 c-19 -36 -14 -59 15 -59 17 0 20 -6 20 -44 0 -25 4 -47 9
-50 9 -6 24 160 16 175 -13 20 -45 8 -60 -22z m33 -9 c-9 -27 -28 -50 -28 -35
0 9 30 65 35 65 2 0 -1 -14 -7 -30z"/>
<path d="M3010 691 c-7 -17 -19 -36 -27 -43 -13 -10 -14 -7 -8 25 5 23 3 37
-3 37 -5 0 -13 -16 -17 -36 -5 -28 -2 -41 10 -53 15 -15 17 -14 31 4 13 17 16
18 24 5 7 -11 11 -4 15 25 9 52 8 59 -3 63 -5 1 -15 -11 -22 -27z"/>
<path d="M3106 691 c-30 -32 -31 -58 -3 -75 14 -9 21 -7 31 7 18 23 26 22 27
-5 1 -13 5 1 10 31 5 30 7 56 4 59 -15 16 -45 8 -69 -17z m44 0 c0 -17 -49
-67 -50 -52 0 8 10 25 22 38 24 25 28 27 28 14z"/>
<path d="M3222 697 c-23 -24 -30 -71 -12 -82 16 -10 49 4 60 25 9 18 8 18 -20
8 -17 -6 -33 -8 -36 -6 -8 8 37 59 47 53 5 -4 9 1 9 9 0 23 -23 19 -48 -7z"/>
<path d="M3316 705 c-10 -27 -7 -83 6 -91 6 -4 17 1 24 11 11 14 16 15 28 6
11 -10 15 -4 18 31 7 60 -4 66 -36 18 -32 -48 -38 -50 -25 -8 9 33 -3 62 -15
33z"/>
<path d="M3665 678 l-26 -43 5 38 c5 37 -7 51 -18 21 -9 -23 -7 -57 4 -74 8
-12 11 -12 28 3 14 13 21 14 30 5 9 -9 12 -7 12 9 0 11 3 35 6 52 9 44 -9 39
-41 -11z"/>
<path d="M3867 702 c-19 -21 -22 -45 -7 -73 14 -26 42 -24 68 4 31 33 27 42
-7 18 -16 -12 -34 -21 -40 -21 -22 0 -11 20 20 35 19 10 29 22 27 33 -5 24
-41 26 -61 4z"/>
</g>
</svg>
